<svg xmlns="http://www.w3.org/2000/svg" viewBox="0 0 33 18" fill="#2b70c9">
<path d="M27.1009 11.632C26.5675 12.368 25.8529 12.736 24.9569 12.736C24.2315 12.736 23.6502 12.5866 23.2129 12.288C22.7862 11.9786 22.5729 11.4933 22.5729 10.832C22.5729 10.5546 22.6102 10.2986 22.6849 10.064C22.7702 9.82931 22.9035 9.54131 23.0849 9.19998L23.5489 5.40798C23.8795 5.15198 24.3275 5.02398 24.8929 5.02398C25.3729 5.02398 25.6449 5.34398 25.7089 5.98398C25.7302 6.17598 25.7409 6.40531 25.7409 6.67198C25.7409 6.92798 25.6982 7.19998 25.6129 7.48798C25.1862 8.95998 24.9782 9.94665 24.9889 10.448C24.9889 10.832 25.2129 11.024 25.6609 11.024C26.1089 11.024 26.4395 10.88 26.6529 10.592C26.8662 10.304 27.0475 9.94665 27.1969 9.51998C27.4742 8.33598 27.7302 7.35998 27.9649 6.59198C28.2102 5.82398 28.3649 5.36531 28.4289 5.21598C28.5355 4.95998 28.7382 4.82665 29.0369 4.81598C29.3355 4.82665 29.6182 5.03998 29.8849 5.45598C30.1515 5.86131 30.2849 6.17598 30.2849 6.39998C30.2635 7.14665 29.7995 9.02931 28.8929 12.048C29.5862 11.504 30.2742 10.8373 30.9569 10.048C31.1915 9.77065 31.3889 9.54131 31.5489 9.35998C31.7089 9.16798 31.8369 9.07198 31.9329 9.07198C32.0822 9.07198 32.1569 9.24265 32.1569 9.58398C32.1569 10.256 31.7782 11.04 31.0209 11.936C30.2742 12.832 29.3569 13.5306 28.2689 14.032C28.1409 14.4586 28.0022 14.864 27.8529 15.248C27.7035 15.632 27.5115 15.968 27.2769 16.256C26.7649 16.8746 25.9862 17.184 24.9409 17.184C24.2369 17.184 23.6342 16.9813 23.1329 16.576C22.6422 16.1706 22.3969 15.664 22.3969 15.056C22.3969 14.7146 22.5089 14.4426 22.7329 14.24C22.9675 14.0373 23.2822 13.8666 23.6769 13.728C24.0822 13.6 24.5515 13.4826 25.0849 13.376C25.6182 13.28 26.1889 13.1573 26.7969 13.008C26.9462 12.368 27.0475 11.9093 27.1009 11.632ZM24.9249 15.952C25.4262 15.952 25.8795 15.5146 26.2849 14.64C25.9009 14.7146 25.5595 14.768 25.2609 14.8C24.9622 14.8426 24.7062 14.88 24.4929 14.912C24.0662 14.976 23.8582 15.088 23.8689 15.248C23.8689 15.4506 23.9862 15.6213 24.2209 15.76C24.4662 15.8986 24.7009 15.9626 24.9249 15.952Z" fill="#2b70c9"/>
<path d="M23.3084 9.02401C23.5004 9.02401 23.5964 9.26935 23.5964 9.76001C23.5964 10.0267 23.4844 10.352 23.2604 10.736C23.0364 11.1093 22.743 11.456 22.3804 11.776C22.0284 12.0853 21.6337 12.3413 21.1964 12.544C20.759 12.7467 20.3324 12.848 19.9164 12.848C19.3297 12.848 18.9457 12.368 18.7644 11.408C18.1244 12.4213 17.175 12.928 15.9164 12.928C15.1484 12.928 14.535 12.6933 14.0764 12.224C13.6177 11.7547 13.3937 11.184 13.4044 10.512C13.4044 8.69868 14.007 7.26935 15.2124 6.22401C16.0444 5.50935 16.9084 5.15201 17.8044 5.15201C18.2097 5.15201 18.5297 5.18401 18.7644 5.24801L19.1324 5.34401C19.5697 3.28535 20.0764 1.90935 20.6524 1.21601C20.8444 0.981347 21.0364 0.864014 21.2284 0.864014C21.5377 0.864014 21.8257 1.07735 22.0924 1.50401C22.327 1.85601 22.4444 2.16001 22.4444 2.41601C22.4444 2.67201 22.407 2.92268 22.3324 3.16801C22.2577 3.41335 22.1617 3.64268 22.0444 3.85601C21.9377 4.05868 21.815 4.26135 21.6764 4.46401C21.5377 4.65601 21.399 4.85335 21.2604 5.05601C20.951 6.20801 20.7217 7.49868 20.5724 8.92801C20.5297 9.33335 20.5084 9.65868 20.5084 9.90401C20.5084 10.64 20.631 11.008 20.8764 11.008C21.1537 11.008 21.8257 10.4533 22.8924 9.34401C23.0844 9.13068 23.223 9.02401 23.3084 9.02401ZM15.7564 9.98401C15.7564 10.8053 16.0604 11.216 16.6684 11.216C17.031 11.216 17.3937 11.0773 17.7564 10.8C18.1297 10.5227 18.4177 10.0587 18.6204 9.40801C18.6417 8.44801 18.7537 7.39201 18.9564 6.24001C18.103 6.41068 17.3564 6.82668 16.7164 7.48801C16.0764 8.14935 15.7564 8.98135 15.7564 9.98401Z" fill="#2b70c9"/>
<path d="M10.7481 12.848C9.68147 12.848 9.14813 11.8507 9.14813 9.856C9.14813 8.768 9.28147 7.78133 9.54813 6.896C9.96413 5.53067 10.4335 4.848 10.9561 4.848C11.2655 4.848 11.5108 5.056 11.6921 5.472C11.8415 5.792 11.9108 6.10667 11.9001 6.416C11.9001 6.84267 11.7721 7.59467 11.5161 8.672C11.2708 9.61067 11.1481 10.192 11.1481 10.416C11.1481 10.64 11.2015 10.7947 11.3081 10.88C11.4255 10.9653 11.5588 11.008 11.7081 11.008C11.8681 11.008 12.0655 10.9067 12.3001 10.704C12.5348 10.5013 12.7695 10.2827 13.0041 10.048C13.2388 9.80267 13.4521 9.57867 13.6441 9.376C13.8468 9.17333 13.9855 9.072 14.0601 9.072C14.2095 9.072 14.2841 9.25333 14.2841 9.616C14.2841 10.3627 13.9055 11.0933 13.1481 11.808C12.4015 12.512 11.6015 12.8587 10.7481 12.848ZM11.4041 3.552C11.1161 3.12533 10.9721 2.66667 10.9721 2.176C10.9721 1.68533 11.0468 1.28 11.1961 0.96C11.3561 0.629333 11.5055 0.389333 11.6441 0.24C11.7828 0.0799999 11.9428 0 12.1241 0C12.4228 0 12.6948 0.224 12.9401 0.672C13.1855 1.10933 13.3081 1.47733 13.3081 1.776C13.3081 2.33067 13.1108 2.768 12.7161 3.088C12.3321 3.39733 11.8948 3.552 11.4041 3.552Z" fill="#2b70c9"/>
<path d="M4.656 12.096C4.656 12.7254 4.04267 13.04 2.816 13.04C2.54933 13.04 2.38933 12.9067 2.336 12.64C2.29333 12.3627 2.272 12.0214 2.272 11.616C2.272 11.2107 2.29867 10.7787 2.352 10.32C2.416 9.85069 2.496 9.34402 2.592 8.80002C2.77333 7.75469 3.02933 6.62936 3.36 5.42402C3.70133 4.20802 4.03733 3.26936 4.368 2.60802C3.696 2.65069 3.02933 2.77336 2.368 2.97602C1.70667 3.16802 1.23733 3.30669 0.96 3.39202C0.682667 3.46669 0.453333 3.50402 0.272 3.50402C0.0906667 3.50402 0 3.44536 0 3.32802C0 3.18936 0.106667 2.98669 0.32 2.72002C0.533333 2.44269 0.837333 2.16536 1.232 1.88802C2.23467 1.20536 3.34933 0.858689 4.576 0.848022L9.84 0.896023C10.128 0.896023 10.272 1.00802 10.272 1.23202C10.272 1.29602 10.2293 1.41336 10.144 1.58402C10.0587 1.74402 9.984 1.92002 9.92 2.11202C9.78133 2.49602 9.488 2.68802 9.04 2.68802C8.60267 2.68802 7.552 2.65602 5.888 2.59202C5.84533 3.06136 5.76 3.66402 5.632 4.40002C5.504 5.12536 5.36533 5.92002 5.216 6.78402C4.85333 8.99202 4.66667 10.7627 4.656 12.096Z" fill="#2b70c9"/>
</svg>